<svg width="173" height="41" viewBox="0 0 173 41" fill="none" xmlns="http://www.w3.org/2000/svg">
<path d="M0 5.125C0 2.29454 2.29153 0 5.11828 0H35.828C38.6547 0 40.9462 2.29454 40.9462 5.125V35.875C40.9462 38.7055 38.6547 41 35.828 41H5.11828C2.29153 41 0 38.7055 0 35.875V5.125Z" fill="white"/>
<path d="M27.9055 31.775H12.8948C12.3037 31.775 11.7589 31.4555 11.4695 30.9394C11.1802 30.4233 11.1918 29.7911 11.4995 29.2858L16.8077 20.5732L11.4995 11.8607C11.1917 11.3554 11.1802 10.7232 11.4695 10.2071C11.7588 9.69095 12.3037 9.37146 12.8948 9.37146H27.9055C28.8082 9.37146 29.5399 10.1042 29.5399 11.0082C29.5399 11.9122 28.8082 12.6449 27.9055 12.6449H15.8065L20.1176 19.7207C20.4364 20.2442 20.4364 20.9023 20.1176 21.4257L15.8065 28.5015H27.9055C28.8082 28.5015 29.5399 29.2343 29.5399 30.1383C29.5399 31.0423 28.8082 31.775 27.9055 31.775Z" fill="white"/>
<path d="M27.9055 31.775H12.8948C12.3037 31.775 11.7589 31.4555 11.4695 30.9394C11.1802 30.4233 11.1918 29.7911 11.4995 29.2858L16.8077 20.5732L11.4995 11.8607C11.1917 11.3554 11.1802 10.7232 11.4695 10.2071C11.7588 9.69095 12.3037 9.37146 12.8948 9.37146H27.9055C28.8082 9.37146 29.5399 10.1042 29.5399 11.0082C29.5399 11.9122 28.8082 12.6449 27.9055 12.6449H15.8065L20.1176 19.7207C20.4364 20.2442 20.4364 20.9023 20.1176 21.4257L15.8065 28.5015H27.9055C28.8082 28.5015 29.5399 29.2343 29.5399 30.1383C29.5399 31.0423 28.8082 31.775 27.9055 31.775Z" fill="url(#paint0_linear)"/>
<path d="M55.764 27H58.998V22.59H61.455C64.752 22.59 67.398 20.826 67.398 17.424C67.398 14.379 65.277 12.3 61.77 12.3H55.764V27ZM58.998 19.713V15.219H61.497C63.114 15.219 64.122 15.996 64.122 17.445C64.122 18.747 63.177 19.713 61.56 19.713H58.998ZM77.9813 27.252C82.5173 27.252 85.8143 23.829 85.8143 19.65C85.8143 15.429 82.5593 12.048 78.0233 12.048C73.4873 12.048 70.1903 15.471 70.1903 19.65C70.1903 23.871 73.4453 27.252 77.9813 27.252ZM78.0233 24.27C75.4193 24.27 73.5713 22.17 73.5713 19.65C73.5713 17.088 75.3773 15.03 77.9813 15.03C80.5853 15.03 82.4333 17.13 82.4333 19.65C82.4333 22.212 80.6273 24.27 78.0233 24.27ZM96.8731 27.252C101.409 27.252 104.706 23.829 104.706 19.65C104.706 15.429 101.451 12.048 96.9151 12.048C92.3791 12.048 89.0821 15.471 89.0821 19.65C89.0821 23.871 92.3371 27.252 96.8731 27.252ZM96.9151 24.27C94.3111 24.27 92.4631 22.17 92.4631 19.65C92.4631 17.088 94.2691 15.03 96.8731 15.03C99.4771 15.03 101.325 17.13 101.325 19.65C101.325 22.212 99.5191 24.27 96.9151 24.27ZM108.625 27H119.188V24.06H111.859V12.3H108.625V27ZM122.215 27H125.617V23.64H122.215V27ZM129.736 27H136.729C140.047 27 142.231 25.656 142.231 22.968C142.231 20.952 141.181 19.965 139.48 19.314C140.53 18.726 141.412 17.802 141.412 16.143C141.412 15.093 141.076 14.274 140.404 13.602C139.564 12.762 138.241 12.3 136.561 12.3H129.736V27ZM132.886 18.243V15.135H136.078C137.443 15.135 138.199 15.681 138.199 16.647C138.199 17.781 137.296 18.243 135.868 18.243H132.886ZM132.886 24.165V20.931H136.624C138.283 20.931 139.018 21.54 139.018 22.527C139.018 23.661 138.157 24.165 136.729 24.165H132.886ZM149.159 27H152.393V15.282H156.866V12.3H144.686V15.282H149.159V27ZM166.655 27.252C169.49 27.252 171.17 26.37 172.682 24.753L170.624 22.548C169.469 23.598 168.44 24.27 166.76 24.27C164.24 24.27 162.497 22.17 162.497 19.65C162.497 17.088 164.282 15.03 166.76 15.03C168.44 15.03 169.406 15.639 170.54 16.668L172.472 14.442C171.107 13.098 169.553 12.048 166.781 12.048C162.266 12.048 159.116 15.471 159.116 19.65C159.116 23.913 162.329 27.252 166.655 27.252Z" fill="white"/>
<defs>
<linearGradient id="paint0_linear" x1="37.4854" y1="-0.161109" x2="3.9849" y2="12.4531" gradientUnits="userSpaceOnUse">
<stop stop-color="#32228A"/>
<stop offset="1" stop-color="#745ACD"/>
</linearGradient>
</defs>
</svg>

