<svg width="41" height="41" viewBox="0 0 41 41" fill="none" xmlns="http://www.w3.org/2000/svg">
<path d="M0 5.125C0 2.29454 2.29153 0 5.11828 0H35.828C38.6547 0 40.9462 2.29454 40.9462 5.125V35.875C40.9462 38.7055 38.6547 41 35.828 41H5.11828C2.29153 41 0 38.7055 0 35.875V5.125Z" fill="white"/>
<path d="M27.9055 31.775H12.8948C12.3037 31.775 11.7589 31.4555 11.4695 30.9394C11.1802 30.4233 11.1918 29.7911 11.4995 29.2858L16.8077 20.5732L11.4995 11.8607C11.1917 11.3554 11.1802 10.7232 11.4695 10.2071C11.7588 9.69095 12.3037 9.37146 12.8948 9.37146H27.9055C28.8082 9.37146 29.5399 10.1042 29.5399 11.0082C29.5399 11.9122 28.8082 12.6449 27.9055 12.6449H15.8065L20.1176 19.7207C20.4364 20.2442 20.4364 20.9023 20.1176 21.4257L15.8065 28.5015H27.9055C28.8082 28.5015 29.5399 29.2343 29.5399 30.1383C29.5399 31.0423 28.8082 31.775 27.9055 31.775Z" fill="white"/>
<path d="M27.9055 31.775H12.8948C12.3037 31.775 11.7589 31.4555 11.4695 30.9394C11.1802 30.4233 11.1918 29.7911 11.4995 29.2858L16.8077 20.5732L11.4995 11.8607C11.1917 11.3554 11.1802 10.7232 11.4695 10.2071C11.7588 9.69095 12.3037 9.37146 12.8948 9.37146H27.9055C28.8082 9.37146 29.5399 10.1042 29.5399 11.0082C29.5399 11.9122 28.8082 12.6449 27.9055 12.6449H15.8065L20.1176 19.7207C20.4364 20.2442 20.4364 20.9023 20.1176 21.4257L15.8065 28.5015H27.9055C28.8082 28.5015 29.5399 29.2343 29.5399 30.1383C29.5399 31.0423 28.8082 31.775 27.9055 31.775Z" fill="url(#paint0_linear)"/>
<defs>
<linearGradient id="paint0_linear" x1="37.4854" y1="-0.161109" x2="3.9849" y2="12.4531" gradientUnits="userSpaceOnUse">
<stop stop-color="#32228A"/>
<stop offset="1" stop-color="#745ACD"/>
</linearGradient>
</defs>
</svg>
<svg width="19" height="23" viewBox="0 0 19 23" fill="none" xmlns="http://www.w3.org/2000/svg">
<path d="M16.9055 22.775H1.89482C1.30374 22.775 0.758903 22.4555 0.469529 21.9394C0.180237 21.4233 0.19176 20.7911 0.499521 20.2858L5.8077 11.5732L0.499521 2.8607C0.191678 2.35544 0.180237 1.72316 0.469529 1.2071C0.758821 0.690952 1.30374 0.37146 1.89482 0.37146H16.9055C17.8082 0.37146 18.5399 1.10423 18.5399 2.0082C18.5399 2.91218 17.8082 3.64495 16.9055 3.64495H4.80654L9.11756 10.7207C9.43644 11.2442 9.43644 11.9023 9.11756 12.4257L4.80654 19.5015H16.9055C17.8082 19.5015 18.5399 20.2343 18.5399 21.1383C18.5399 22.0423 17.8082 22.775 16.9055 22.775Z" fill="white"/>
<path d="M16.9055 22.775H1.89482C1.30374 22.775 0.758903 22.4555 0.469529 21.9394C0.180237 21.4233 0.19176 20.7911 0.499521 20.2858L5.8077 11.5732L0.499521 2.8607C0.191678 2.35544 0.180237 1.72316 0.469529 1.2071C0.758821 0.690952 1.30374 0.37146 1.89482 0.37146H16.9055C17.8082 0.37146 18.5399 1.10423 18.5399 2.0082C18.5399 2.91218 17.8082 3.64495 16.9055 3.64495H4.80654L9.11756 10.7207C9.43644 11.2442 9.43644 11.9023 9.11756 12.4257L4.80654 19.5015H16.9055C17.8082 19.5015 18.5399 20.2343 18.5399 21.1383C18.5399 22.0423 17.8082 22.775 16.9055 22.775Z" fill="url(#paint0_linear)"/>
<defs>
<linearGradient id="paint0_linear" x1="26.4854" y1="-9.16111" x2="-7.0151" y2="3.45305" gradientUnits="userSpaceOnUse">
<stop stop-color="#32228A"/>
<stop offset="1" stop-color="#745ACD"/>
</linearGradient>
</defs>
</svg>

<svg width="118" height="16" viewBox="0 0 118 16" fill="none" xmlns="http://www.w3.org/2000/svg">
<path d="M0.764 15H3.998V10.59H6.455C9.752 10.59 12.398 8.826 12.398 5.424C12.398 2.379 10.277 0.299999 6.77 0.299999H0.764V15ZM3.998 7.713V3.219H6.497C8.114 3.219 9.122 3.996 9.122 5.445C9.122 6.747 8.177 7.713 6.56 7.713H3.998ZM22.9813 15.252C27.5173 15.252 30.8143 11.829 30.8143 7.65C30.8143 3.429 27.5593 0.0479997 23.0233 0.0479997C18.4873 0.0479997 15.1903 3.471 15.1903 7.65C15.1903 11.871 18.4453 15.252 22.9813 15.252ZM23.0233 12.27C20.4193 12.27 18.5713 10.17 18.5713 7.65C18.5713 5.088 20.3773 3.03 22.9813 3.03C25.5853 3.03 27.4333 5.13 27.4333 7.65C27.4333 10.212 25.6273 12.27 23.0233 12.27ZM41.8731 15.252C46.4091 15.252 49.7061 11.829 49.7061 7.65C49.7061 3.429 46.4511 0.0479997 41.9151 0.0479997C37.3791 0.0479997 34.0821 3.471 34.0821 7.65C34.0821 11.871 37.3371 15.252 41.8731 15.252ZM41.9151 12.27C39.3111 12.27 37.4631 10.17 37.4631 7.65C37.4631 5.088 39.2691 3.03 41.8731 3.03C44.4771 3.03 46.3251 5.13 46.3251 7.65C46.3251 10.212 44.5191 12.27 41.9151 12.27ZM53.6249 15H64.1879V12.06H56.8589V0.299999H53.6249V15ZM67.2149 15H70.6169V11.64H67.2149V15ZM74.7357 15H81.7287C85.0467 15 87.2307 13.656 87.2307 10.968C87.2307 8.952 86.1807 7.965 84.4797 7.314C85.5297 6.726 86.4117 5.802 86.4117 4.143C86.4117 3.093 86.0757 2.274 85.4037 1.602C84.5637 0.761999 83.2407 0.299999 81.5607 0.299999H74.7357V15ZM77.8857 6.243V3.135H81.0777C82.4427 3.135 83.1987 3.681 83.1987 4.647C83.1987 5.781 82.2957 6.243 80.8677 6.243H77.8857ZM77.8857 12.165V8.931H81.6237C83.2827 8.931 84.0177 9.54 84.0177 10.527C84.0177 11.661 83.1567 12.165 81.7287 12.165H77.8857ZM94.1589 15H97.3929V3.282H101.866V0.299999H89.6859V3.282H94.1589V15ZM111.655 15.252C114.49 15.252 116.17 14.37 117.682 12.753L115.624 10.548C114.469 11.598 113.44 12.27 111.76 12.27C109.24 12.27 107.497 10.17 107.497 7.65C107.497 5.088 109.282 3.03 111.76 3.03C113.44 3.03 114.406 3.639 115.54 4.668L117.472 2.442C116.107 1.098 114.553 0.0479997 111.781 0.0479997C107.266 0.0479997 104.116 3.471 104.116 7.65C104.116 11.913 107.329 15.252 111.655 15.252Z" fill="white"/>
</svg>